<svg xmlns="http://www.w3.org/2000/svg" width="20px" height="20px" style="isolation:isolate" viewBox="0 0 64 64" id="thunder" fill="#fff">
  <defs>
    <clipPath id="a">
      <rect width="64" height="64"></rect>
    </clipPath>
  </defs>
  <g clip-path="url(#a)">
    <path d=" M 37.096 2 L 27.328 2 C 25.948 2 24.387 3.03 23.843 4.298 L 11.514 33.066 C 10.711 34.939 11.714 36.46 13.751 36.46 L 30.981 36.46 C 33.019 36.46 34.15 38.029 33.506 39.962 L 27.316 58.532 C 25.943 62.652 26.943 63.176 29.549 59.702 L 52.149 29.568 C 53.372 27.938 52.71 26.614 50.673 26.614 L 33.443 26.614 C 31.405 26.614 30.365 25.078 31.122 23.186 L 38.668 4.321 C 39.18 3.04 38.476 2 37.096 2 Z "></path>
  </g>
</svg>